<svg id="instagram" xmlns="http://www.w3.org/2000/svg" width="44.504" height="44.504" viewBox="0 0 44.504 44.504">
  <path id="Caminho_11" data-name="Caminho 11" d="M40.863,23.88H27.6a3.844,3.844,0,0,0-3.84,3.84V40.984a3.844,3.844,0,0,0,3.84,3.84H40.863a3.845,3.845,0,0,0,3.84-3.84V27.72A3.844,3.844,0,0,0,40.863,23.88ZM34.231,41.247a6.895,6.895,0,1,1,6.895-6.895A6.9,6.9,0,0,1,34.231,41.247Zm7.117-12.364a1.631,1.631,0,1,1,1.631-1.631A1.633,1.633,0,0,1,41.347,28.883Z" transform="translate(-11.979 -12.04)" fill="#fff"/>
  <path id="Caminho_12" data-name="Caminho 12" d="M40.83,36.971a3.981,3.981,0,1,0,3.981,3.98A3.986,3.986,0,0,0,40.83,36.971Z" transform="translate(-18.578 -18.64)" fill="#fff"/>
  <path id="Caminho_13" data-name="Caminho 13" d="M22.252,0A22.252,22.252,0,1,0,44.5,22.252,22.253,22.253,0,0,0,22.252,0ZM35.637,28.944A6.76,6.76,0,0,1,28.884,35.7H15.62a6.761,6.761,0,0,1-6.753-6.753V15.68A6.761,6.761,0,0,1,15.62,8.927H28.884a6.76,6.76,0,0,1,6.753,6.753Z" fill="#fff"/>
</svg>
