<svg xmlns="http://www.w3.org/2000/svg" width="42.273" height="42.279" viewBox="0 0 42.273 42.279">
  <path id="Caminho_23" data-name="Caminho 23" d="M34.091,23.6c-.866,2.454-3.246,9.254.778,10.188a4.918,4.918,0,0,0,2.947-.455A3.061,3.061,0,0,1,41.845,35.5c1.365,4.334-2.911,6.948-6.762,6.736-4.021.172-7.041-2.75-8.037-6.525-2.019-5.968,1.2-12.63,3.45-18.014,2-4.779,3.751-9.192,2.311-9.657C29.608,7.007,23.792,20,22.064,22.072c-1.175,1.409-2.672,2.775-4.452,2.775-3.2,0-4.286-2.554-4.286-5.874,0-3.141.664-5,1.153-7.838.229-1.331.473-2.7-.69-3.091-3.33-1.123-14.366,30.2-2.51,25.249a3.052,3.052,0,0,1,4.029,2.169c1.74,5.529-5.727,7.405-8.843,6.547A8.185,8.185,0,0,1,.906,36.881C-.7,32.9-.222,27.587.52,23.429q.174-.98.4-1.945A66.894,66.894,0,0,1,3.93,11.962c.485-1.215,1.008-2.412,1.584-3.572,2.3-4.643,5.1-8.418,10.1-8.418,7.852,0,1.748,13.995,4.072,14.518S26.194,2.145,31.146.321c3.6-1.323,7.836,1.245,8.53,5.543C40.744,9.747,35.658,19.165,34.091,23.6Z" transform="translate(0.168 0.028)" fill="#6a8c37" fill-rule="evenodd"/>
</svg>
