<svg xmlns="http://www.w3.org/2000/svg" width="31.45" height="31.45" viewBox="0 0 31.45 31.45">
  <path id="ic_shopping_cart_24px" d="M10.435,27.16a3.145,3.145,0,1,0,3.145,3.145A3.141,3.141,0,0,0,10.435,27.16ZM1,2V5.145H4.145L9.806,17.08,7.683,20.933a3.04,3.04,0,0,0-.393,1.51,3.154,3.154,0,0,0,3.145,3.145h18.87V22.443H11.1a.389.389,0,0,1-.393-.393l.047-.189L12.165,19.3H23.88a3.13,3.13,0,0,0,2.752-1.62l5.63-10.206a1.536,1.536,0,0,0,.189-.755,1.577,1.577,0,0,0-1.573-1.573H7.62L6.142,2H1ZM26.16,27.16a3.145,3.145,0,1,0,3.145,3.145A3.141,3.141,0,0,0,26.16,27.16Z" transform="translate(-1 -2)" fill="#fff"/>
</svg>
